<svg xmlns="http://www.w3.org/2000/svg" width="1200" height="630" viewBox="0 0 1200 630" role="img" aria-labelledby="title desc">
	<title id="title">Eyad Gaber Portfolio Preview</title>
	<desc id="desc">A dark portfolio link preview for Eyad Gaber, Full Stack Engineer and Systems Developer.</desc>
	<defs>
		<radialGradient id="glowA" cx="20%" cy="15%" r="70%">
			<stop offset="0%" stop-color="#0097b2" stop-opacity="0.55" />
			<stop offset="58%" stop-color="#0097b2" stop-opacity="0.12" />
			<stop offset="100%" stop-color="#080c14" stop-opacity="0" />
		</radialGradient>
		<radialGradient id="glowB" cx="85%" cy="80%" r="70%">
			<stop offset="0%" stop-color="#38bdf8" stop-opacity="0.42" />
			<stop offset="64%" stop-color="#38bdf8" stop-opacity="0.1" />
			<stop offset="100%" stop-color="#080c14" stop-opacity="0" />
		</radialGradient>
		<linearGradient id="titleGradient" x1="180" x2="820" y1="0" y2="0">
			<stop offset="0%" stop-color="#f8fafc" />
			<stop offset="100%" stop-color="#94a3b8" />
		</linearGradient>
		<filter id="softShadow" x="-20%" y="-20%" width="140%" height="140%">
			<feDropShadow dx="0" dy="20" stdDeviation="24" flood-color="#000000" flood-opacity="0.35" />
		</filter>
	</defs>
	<rect width="1200" height="630" fill="#080c14" />
	<rect width="1200" height="630" fill="url(#glowA)" />
	<rect width="1200" height="630" fill="url(#glowB)" />
	<path d="M0 500 C180 430 270 545 420 470 S720 390 900 460 1080 520 1200 450 V630 H0Z" fill="#101622" opacity="0.7" />
	<g opacity="0.3" stroke="#14b8a6" stroke-width="1">
		<path d="M80 470 H1120" />
		<path d="M130 430 H1070" />
		<path d="M190 390 H1010" />
		<path d="M260 350 H940" />
		<path d="M600 310 V560" />
		<path d="M450 330 315 560" />
		<path d="M750 330 885 560" />
	</g>
	<g filter="url(#softShadow)">
		<rect x="94" y="94" width="1012" height="442" rx="28" fill="#101622" opacity="0.82" stroke="#1e293b" />
		<rect x="124" y="124" width="70" height="70" rx="16" fill="#0097b2" opacity="0.16" stroke="#0097b2" />
		<image href="./Logo.svg" x="134" y="134" width="50" height="50" preserveAspectRatio="xMidYMid meet" />
		<text x="222" y="156" font-family="Outfit, Arial, sans-serif" font-size="28" font-weight="700" fill="#0097b2">Eyad.Gaber</text>
		<text x="124" y="285" font-family="Outfit, Arial, sans-serif" font-size="76" font-weight="800" fill="url(#titleGradient)">Full Stack Engineer</text>
		<text x="124" y="368" font-family="Outfit, Arial, sans-serif" font-size="76" font-weight="800" fill="url(#titleGradient)">&amp; Systems Developer</text>
		<text x="128" y="434" font-family="Outfit, Arial, sans-serif" font-size="28" font-weight="500" fill="#94a3b8">Linux | Operating Systems | Networks | IT Infrastructure</text>
		<text x="128" y="480" font-family="Outfit, Arial, sans-serif" font-size="24" font-weight="600" fill="#38bdf8">Interactive project sandboxes and production-minded web systems</text>
	</g>
</svg>
